<?xml version="1.0" encoding="utf-8" ?>
<svg xmlns="http://www.w3.org/2000/svg" xmlns:xlink="http://www.w3.org/1999/xlink" width="1024" height="1024">
	<path fill="#011621" d="M278.512 204.699L284.854 204.609L418.075 204.761L606.629 204.617L700.5 204.562L728.512 204.563C737.232 204.566 745.731 204.453 754.37 205.911C770.517 208.634 785.192 217.008 796.709 228.533C806.391 238.222 814.322 252.484 817.042 265.982C819.538 278.363 818.535 291.45 818.536 304.034L818.538 357.589L818.559 556.762L825.904 561.323C833.061 566.236 838.441 573.534 839.855 582.215C841.086 589.766 838.961 596.637 834.478 602.733L833.905 603.5C830.815 607.702 826.991 611.459 823.215 615.05C822.311 615.909 818.786 618.497 818.497 619.335C818.079 620.548 818.488 623.649 818.488 625.053L818.498 645.254L818.465 730.798L818.419 756.026C818.399 762.926 818.515 770.046 817.366 776.869C816.029 784.813 813.128 792.248 808.513 798.868C798.724 812.912 784.635 823.094 767.608 826.008C753.445 828.432 740.906 823.581 729.621 815.502C728.736 815.988 728.16 816.678 727.453 817.377C720.305 824.443 713.422 826.676 703.467 826.578C700.838 826.106 698.158 825.623 695.748 824.428C692.528 822.831 689.065 819.616 685.5 818.977C681.4 818.241 676.382 822.815 672.744 824.54C669.93 825.876 666.786 826.658 663.672 826.691C657.541 826.755 652.488 825.297 648.093 820.833C642.591 815.245 642.928 808.687 643.109 801.464L377.926 801.26C378.303 806.705 378.951 812.88 376.02 817.75C373.621 821.735 369.047 825.376 364.384 826.294C357.221 827.704 351.374 826.04 345.3 822.25C343.358 821.039 341.268 819.525 339 819.077C333.15 817.922 326.771 824.783 320.926 826.024L320.25 826.155C310.935 828.056 302.175 825.003 295.175 818.849C294.516 818.271 292.415 815.891 291.762 815.673C291.355 815.537 291.06 816.168 290.709 816.414L286.25 819.448C279.134 824.013 270.98 826.387 262.543 826.451C247.076 826.568 233.409 820.549 222.55 809.659C214.511 801.597 208.332 792.583 205.51 781.433C202.977 771.422 203.478 761.287 203.481 751.046L203.498 719.671L203.536 618.529L201.304 616.883C192.662 609.996 183.317 600.297 182.15 588.75L182.1 588.184C181.11 575.619 187.479 565.963 198.351 560.097C199.248 559.614 203.068 558.19 203.499 557.604C203.752 557.262 203.488 551.161 203.488 550.267L203.478 520.376L203.499 323.102L203.393 298.418C203.222 287.226 203.008 276.203 205.382 265.191C207.8 253.975 213.062 243.03 220.368 234.192C230.626 221.785 244.532 212.131 260.071 207.683C266.161 205.94 272.232 205.301 278.512 204.699ZM504.016 336.463C491.137 421.889 464.223 506.53 410.806 575.64C395.563 595.36 378.444 613.782 358.262 628.558L343.719 638.671C355.461 668.126 363.748 698.013 370.048 729.065L374.437 753.378L375.815 763.446C375.974 764.862 375.883 766.841 376.617 768.064L519.183 767.803L646.429 767.799C650.294 739.371 654.606 711.81 662.889 684.25L672.25 655.738L676.528 644.443C677.22 642.641 678.205 640.706 678.479 638.806L662.498 627.136C654.233 620.882 646.342 614.154 638.828 607.018C628.817 597.509 620.147 586.996 611.633 576.158C604.045 566.5 596.57 556.546 590.014 546.144C569.205 513.127 554.004 476.411 541.8 439.447C531.099 407.037 523.653 373.618 519.532 339.739C519.477 339.289 519.208 336.586 519.075 336.472C518.786 336.226 505.321 336.464 504.016 336.463ZM278.42 238.187C266.666 239.402 254.721 245.266 247.188 254.454C235.845 268.289 236.078 286.524 236.36 303.467C238.988 304.612 701.957 303.759 742.625 303.757L785.175 303.559C785.649 285.662 786.734 266.855 773.576 252.797C765.319 243.975 755.007 238.27 742.785 237.946L641.36 237.881L441.668 237.969L329.777 238.007L295.608 238.024C289.974 238.028 284 237.582 278.42 238.187Z"/>
	<path fill="#DE3933" d="M787.418 590.938C792.139 588.425 797.631 586.584 802.711 584.901C799.377 588.521 796.073 592.753 792.333 595.924C790.027 594.418 788.76 593.401 787.418 590.938Z"/>
	<path fill="#DE3933" d="M233.739 598.729C228.094 594.136 222.015 589.67 217.207 584.195L236.25 591.47C241.886 593.65 247.254 595.565 252.575 598.504L248.75 598.862C248.285 600.465 249.426 600.394 248.419 601.787C247.291 601.53 246.855 601.362 246.073 600.5L245.896 598.512L245.25 598.502C244.354 599.72 243.514 601.489 242.472 602.5C242.199 602.571 241.933 602.748 241.652 602.714C241.488 602.694 240.096 601.455 239.913 601.31C238.21 599.963 236.442 598.864 234.561 597.784L233.739 598.729Z"/>
	<path fill="#DE3933" d="M745.23 621.8C741.385 622.959 737.342 624.428 733.372 625.023C728.923 625.691 724.213 625.674 719.713 625.89L745.017 610.675C747.189 612.39 748.704 614.179 750.374 616.359C748.428 618.04 746.485 619.511 745.23 621.8Z"/>
	<path fill="#BF1917" d="M745.017 610.675L787.418 590.938C788.76 593.401 790.027 594.418 792.333 595.924L773.006 609.382C771.199 610.505 769.447 611.61 767.5 612.482C760.063 616.287 753.523 620.125 745.23 621.8C746.485 619.511 748.428 618.04 750.374 616.359C748.704 614.179 747.189 612.39 745.017 610.675Z"/>
	<path fill="#FE6C61" d="M767.5 612.482C767.324 612.048 767.255 611.966 767.24 611.426C767.211 610.293 767.788 609.002 768.5 608.169C770.128 608.386 771.472 608.804 773.006 609.382C771.199 610.505 769.447 611.61 767.5 612.482Z"/>
	<path fill="#FE6C61" d="M234.561 597.784C236.442 598.864 238.21 599.963 239.913 601.31C240.096 601.455 241.488 602.694 241.652 602.714C241.933 602.748 242.199 602.571 242.472 602.5C243.514 601.489 244.354 599.72 245.25 598.502L245.896 598.512L246.073 600.5C246.855 601.362 247.291 601.53 248.419 601.787C249.426 600.394 248.285 600.465 248.75 598.862L252.575 598.504L277.978 611.398L284.763 615.037L302.349 626.057C293.665 625.469 284.773 624.337 276.455 621.733L273.578 620.707L272.851 620.467C271.587 620.125 270.445 619.528 269.26 618.979C266.076 617.189 262.496 615.225 259.059 614.021C256.878 613.257 254.809 612.292 252.856 611.046C251.063 609.903 249.16 608.243 247.084 607.718C242.636 606.593 237.441 601.513 233.739 598.729L234.561 597.784Z"/>
	<path fill="#DE3933" d="M273.578 620.707L274.058 619.961C275.154 618.203 275.664 617.517 277.559 616.58L279.275 618.079L276.455 621.733L273.578 620.707Z"/>
	<path fill="#BF1917" d="M269.26 618.979C269.443 617.334 269.604 615.915 270.25 614.382L271.828 615.295C272.653 615.728 273.346 615.691 274.25 615.71L274.25 616.437L272.827 617.75L272.851 620.467C271.587 620.125 270.445 619.528 269.26 618.979Z"/>
	<path fill="#FEBAAD" d="M568.711 412.992C570.787 412.93 572.472 412.893 574.5 413.255C576.594 413.629 579.575 413.897 581.564 413.127C583.02 412.563 585.152 412.816 586.714 412.82L595.86 446.061L579.174 446.14L568.711 412.992Z"/>
	<path fill="#780605" d="M663.687 558.068L676.955 579.867C680.108 584.656 683.056 589.173 686.799 593.541C689.324 596.917 692.886 600.52 694.909 604.151C693.87 605.38 692.902 606.625 691.608 607.599C689.216 606.351 687.776 604.906 685.692 603.341C681.809 600.424 677.991 598.164 674.532 594.65L669.347 589.927L650.135 570.085C651.266 569.255 652.85 568.336 653.615 567.159C653.998 566.571 652.34 564.667 652.091 563.75L656.575 559.25C658.699 558.949 658.535 560.616 660.5 560.868C661.474 559.831 662.587 558.966 663.687 558.068Z"/>
	<path fill="#780605" d="M373.601 558.88L375.274 559.539L378.026 562.9C372.258 570.284 365.03 576.696 358.25 583.098L342.634 597.928C339.061 601.267 334.757 605.949 330 607.471C328.522 607.188 327.565 606.554 326.334 605.75C325.92 604.287 326.523 603.708 327.396 602.463C331.069 597.226 335.901 592.678 339.84 587.649C342.188 584.652 344.048 581.28 346.162 578.118C349.939 572.47 353.643 567.07 356.875 561.075C357.667 562.844 358.541 564.241 359.75 565.755C360.961 565.439 361.286 564.497 361.997 563.507L362.576 563.389L365 565.54L365.943 565.25C367.379 563.375 368.082 561.976 368.588 559.665C368.948 559.696 370.047 559.862 370.381 559.79L373.601 558.88Z"/>
	<path fill="#FE6C61" d="M746.99 787.873L745.593 786.25C743.027 782.722 741.762 778.637 741.293 774.343C741.187 773.374 740.916 771.945 741.058 771C741.168 770.27 741.622 770.039 741.562 769.195C741.337 765.989 740.812 762.824 740.74 759.597C740.648 755.432 741.131 751.237 741.28 747.074L742.351 717.242L743.639 681.008C743.888 673.19 743.671 665.293 744.669 657.526C745.847 655.923 747.207 656.039 749.074 655.649L749.192 675.793L748.218 683.915C748.061 687.354 747.987 690.62 748.333 694.049L748.4 694.762L748.445 695.189C747.551 697.529 748.021 701.57 748.029 704.148L748.121 720.75L749.928 722.278L749.895 722.463C748.242 723.472 748.151 723.477 747.688 725.316C747.375 726.56 747.61 727.594 747.838 728.822C748.154 730.529 747.906 732.434 747.807 734.161C746.973 735.852 747.628 737.188 748.003 738.893C748.263 740.077 747.851 741.127 747.506 742.25C747.753 743.096 748.466 744.681 748.455 745.5C748.448 746.034 747.46 746.954 747.434 747.5C747.396 748.297 748.28 749.462 748.228 750.25C748.167 751.159 747.184 752.583 747.379 753.5C747.478 753.97 748.011 754.277 748.093 754.75C748.22 755.481 747.379 757.487 747.118 758.25L747.414 758.844C747.967 760.348 747.277 762.733 747.212 764.377C747.055 768.31 747.541 772.101 747.559 776C747.569 778.063 746.832 779.728 747.7 781.75L747.586 782.169C747.094 784.082 747.036 785.909 746.99 787.873Z"/>
	<path fill="#FE6C61" d="M272.027 655.111C273.567 655.577 276.157 655.944 277.017 657.25L279.908 722.057L280.949 749.606C281.253 758.042 281.839 766.221 280.469 774.608C279.767 778.904 277.928 783.008 275.241 786.423C274.935 784.443 275.191 782.465 274.69 780.507C274.126 778.301 275.361 776.676 274.461 774.5L275.475 772.75L275.15 771.878C274.84 770.751 274.982 769.768 275.468 768.75C274.439 765.867 275.006 761.612 274.899 758.531L274.113 732.433C273.991 727.846 274.229 723.15 273.619 718.599L273.471 717.868C273.771 716.057 273.626 714.325 273.518 712.5C272.554 711.768 272.887 712.207 272.435 711.25L273.512 710.25L271.99 671.682L272.027 655.111Z"/>
	<path fill="#780605" d="M318.292 524.555C319.141 524.29 319.774 523.976 320.526 523.5L320.66 520.75C321.675 520.348 322.22 520.076 322.944 519.25C322.397 518.255 322.16 517.635 322.077 516.5L322.75 516.126C322.806 516.485 322.856 516.916 322.994 517.25C323.444 518.337 323.752 518.541 324.75 518.99C325.836 518.386 326.113 518.34 326.663 517.25L325.25 514.997L325.5 514.515L328 516.587C329.136 515.815 329.465 515.781 329.889 514.5L328.97 512.75C329.866 512.216 330.639 514.164 332 514.492L333.5 513.38C335.334 513.606 335.749 514.171 337.159 515.312L338.568 514.184C339.94 515.023 342.014 516.17 342.583 517.75C341.696 518.437 340.961 519.096 340.221 519.939L341.62 522.512C337.91 532.049 332.447 541.957 327.062 550.666L319.956 561.97L316.566 567.057C313.696 571.335 310.513 575.095 307.4 579.171C305.903 581.131 303.744 584.95 301.25 585.442L301.029 584.25C305.677 574.207 307.423 562.809 311.384 552.465L312.676 548.619C314.49 540.596 315.599 532.367 318.292 524.555Z"/>
	<path fill="#780605" d="M677.059 513.933C679.551 515.621 681.809 518.099 683.965 520.198L685.065 519.75L684.959 518.5C681.643 515.79 677.128 511.482 675.481 507.5L675.75 507.042C678.693 510.931 682.703 514.646 686.25 517.996L687.25 517.561C686.785 515.09 682.979 511.704 681.268 509.75L681.75 509.331C683.706 511.492 686.204 514.149 688.5 515.922C689.305 515.321 689.44 515.162 689.86 514.25C687.234 512.197 685.416 509.417 683.466 506.75C684.483 507.026 685.152 508.134 685.863 508.916C687.505 510.723 691.228 515.488 693.5 515.957L694.015 515.25C693.271 514.542 692.923 514.188 692.453 513.25L693.199 512.25L693.75 512.524C693.83 513.757 694.336 514.292 695.088 515.201C695.534 515.74 695.429 516.068 695.488 516.75C694.321 517.601 693.38 518.325 692.502 519.5L693.014 520.25C695.814 520.553 698.256 515.329 701.095 514.307L701.863 514.06L701.638 514.654L702.678 518.367C703.928 528.988 707.863 538.93 709.769 549.437L713.517 560.5C714.406 563.156 715.5 565.234 715.768 568.078C716.47 572.373 718.258 575.774 720.042 579.7C719.275 580.82 718.496 581.585 717.5 582.489L716.513 582.429L705.635 567.231C703.154 564.312 701.339 560.713 699.171 557.533C695.072 552.38 692.132 546.306 688.85 540.635C684.033 532.312 679 523.471 677.059 513.933Z"/>
	<path fill="#FE6C61" d="M701.638 514.654L702.678 518.367C701.152 519.168 699.831 520.333 698.136 519.846L697.967 518.5C699.04 516.802 699.973 515.782 701.638 514.654Z"/>
	<path fill="#BF1917" d="M401.384 518.529C402.637 516.233 402.424 515.508 402.75 513.062C404.668 514.084 406.713 518.247 407.904 520.212L404.901 525.186L399.739 533.465L397.235 537.052L393.888 541.459L385.269 553.465L378.026 562.9L375.274 559.539L373.601 558.88L370.381 559.79C370.047 559.862 368.948 559.696 368.588 559.665C368.082 561.976 367.379 563.375 365.943 565.25L365 565.54L362.576 563.389L361.997 563.507C361.286 564.497 360.961 565.439 359.75 565.755C358.541 564.241 357.667 562.844 356.875 561.075L358.11 558.933L364.689 546.348L366.856 541.468L367.986 539.17L374.982 522.669C375.842 523.541 376.711 524.1 377.738 524.75L378.402 524.5C378.083 523.611 377.997 523.229 377.985 522.25C380.678 521.604 381.715 525.448 384.25 525.978L384.433 525.25L380.013 520.25L380.75 519.526L382.591 520.328C384.358 519.85 385.494 518.619 386.789 517.381C388.682 515.571 388.911 518.085 391.25 518.126C392.504 517.367 392.876 516.724 393.599 515.5L393.139 514.864L393.5 514.11L394.5 514.503L396.5 513.42L398.75 514.925L400.101 513.678C400.317 514.625 400.287 514.159 400.136 515.332C399.954 516.743 400.665 517.343 401.384 518.529Z"/>
	<path fill="#FED0C5" d="M568.711 412.992L553.2 336.813L575.97 336.558C577.968 340.745 577.301 348.718 577.642 353.45L579.564 372.5C581.336 385.957 583.446 399.633 586.714 412.82C585.152 412.816 583.02 412.563 581.564 413.127C579.575 413.897 576.594 413.629 574.5 413.255C572.472 412.893 570.787 412.93 568.711 412.992Z"/>
	<path fill="#780605" d="M237.018 460.951C237.913 461.798 238.946 462.628 239.699 463.599L241.028 463.859L243.75 463.033C244.593 463.742 245.209 464.15 246.25 464.516L248.773 462.722L250.611 465.389L251.5 465.406L254.991 461.819C254.841 463.797 254.432 466.132 254.877 468.067C255.518 470.859 255.002 474.517 255.079 477.438C255.254 484.029 255.725 490.476 255.319 497.09C255.206 498.933 255.79 499.807 255.383 501.731C255.155 502.81 255.877 503.696 255.895 504.75C255.909 505.552 255.571 506.488 255.332 507.25C255.77 508.435 256.029 508.384 255.521 509.608C255.178 510.435 255.064 511.01 255.104 511.917L255.659 513L255.312 513.57C254.817 514.436 254.974 514.085 254.792 515.132L255.618 516.5L254.298 519.75L255.492 520.5L255.193 522.323C255.098 522.972 255.321 523.366 255.51 523.97C255.893 525.196 255.792 525.787 255.593 527.016C255.271 529.001 255.714 531.078 255.071 533C255.407 533.629 255.98 534.22 255.79 534.943C255.584 535.729 255.159 536.269 254.704 536.924L255.062 537.525L255.937 539.25C254.969 540.63 254.869 540.592 255.033 542.25L255.896 543.5L254.42 545.491C255.011 546.185 256.452 547.389 256.309 548.291C256.144 549.332 255.581 550.123 255.037 551L255.75 551.475C256.785 550.962 257.764 550.103 258.93 550.75L262.088 553.354C264.274 553.054 263.158 551.582 265.949 552.25L266.75 553.347L265.171 554.75L265.445 555.545L266.305 555.803C267.373 554.845 267.969 553.932 269.425 553.75L269.68 554.109C270.805 555.613 271.818 556.045 273.56 556.638L273.987 556.289L273.921 566.068C273.86 567.085 273.989 567.689 274.303 568.643C273.977 569.977 274.109 570.245 273 571.014C270.733 570.916 269.116 570.199 267.074 569.298L257.105 563.841L246.932 559.776L237.333 557.182L237.274 534.583L237.018 460.951Z"/>
	<path fill="#BF1917" d="M273.56 556.638L273.987 556.289L273.921 566.068C273.86 567.085 273.989 567.689 274.303 568.643C273.977 569.977 274.109 570.245 273 571.014C270.733 570.916 269.116 570.199 267.074 569.298L271.75 564.363C270.799 563.164 270.763 563.228 269.25 562.915L268.901 562C270.355 560.507 272.205 558.935 273.289 557.16L273.56 556.638Z"/>
	<path fill="#BF1917" d="M767.014 336.806L784.542 336.509L784.389 455.73L783.6 464.294L783.234 464.389L779.355 461.05C778.479 460.205 778.004 459.8 776.75 459.615L775.25 460.859L772.75 460.141C772.015 460.982 772.032 461.67 771.926 462.75L771.129 462.871C769.959 461.747 768.769 460.39 767.34 459.621L766.633 440.902C766.244 437.012 766.805 433.145 766.887 429.25L766.942 412.216L767.014 336.806Z"/>
	<path fill="#BF1917" d="M237.018 460.951L236.51 336.997L253.871 336.979L254.965 440.587L255.004 442.048C258.839 442.772 260.572 443.993 262.993 447.073C261.196 448.522 259.445 449.969 257.778 451.57C256.9 452.413 257.57 453.889 256.133 453.67L255.449 453.408C254.62 456.018 254.968 459.097 254.991 461.819L251.5 465.406L250.611 465.389L248.773 462.722L246.25 464.516C245.209 464.15 244.593 463.742 243.75 463.033L241.028 463.859L239.699 463.599C238.946 462.628 237.913 461.798 237.018 460.951Z"/>
	<path fill="#DE3933" d="M747.086 336.647L767.014 336.806L766.942 412.216L766.887 429.25C766.805 433.145 766.244 437.012 766.633 440.902L767.34 459.621L767.368 460.311L767.535 462.258C767.634 463.51 767.663 462.937 767.286 463.945C766.698 465.518 767.303 467.706 767.456 469.393C767.663 471.864 768.185 473.76 766.808 475.984C767.262 476.706 767.575 477.203 767.814 478.031C766.15 478.96 764.714 480.417 763.283 481.667C761.589 479.738 757.854 476.2 757.659 473.75C759.097 472.843 759.513 471.726 760.201 470.25L759.719 469.266C758.907 469.089 758.199 468.877 757.433 468.555L757.041 467.25C755.235 466.004 754.391 464.094 752.904 462.558L752.581 462.25L754.591 460.25L754.25 458.885C752.298 457.16 750.557 455.442 748.207 454.264L747.872 455.988C747.428 453.145 747.665 450.039 747.653 447.147L747.447 431.365L747.086 336.647Z"/>
	<path fill="#BF1917" d="M767.456 469.393C767.663 471.864 768.185 473.76 766.808 475.984C765.331 474.457 763.17 473.222 762.035 471.5L762.628 470.25C764.556 470.169 765.093 471.741 766.907 472.324L767.456 469.393Z"/>
	<path fill="#FE6C61" d="M396.98 413.356L414.324 413.395C412.008 427.674 408.81 441.964 404.933 455.903C403.159 462.28 400.227 468.543 399.089 475.068C398.623 477.739 398.033 480.453 399.659 482.866L400.299 483.699L400.636 484.135C401.789 485.586 403.359 486.787 405.25 487.032C407.415 487.312 410.66 486.15 412.174 484.567C415.896 480.676 417.308 473.654 419.061 468.659L426.94 445.512L442.869 446.063C434.056 472.063 421.679 496.54 407.904 520.212C406.713 518.247 404.668 514.084 402.75 513.062C402.424 515.508 402.637 516.233 401.384 518.529C400.665 517.343 399.954 516.743 400.136 515.332C400.287 514.159 400.317 514.625 400.101 513.678L398.75 514.925L396.5 513.42L394.5 514.503L393.5 514.11L393.139 514.864L393.599 515.5C392.876 516.724 392.504 517.367 391.25 518.126C388.911 518.085 388.682 515.571 386.789 517.381C385.494 518.619 384.358 519.85 382.591 520.328L380.75 519.526L380.013 520.25L384.433 525.25L384.25 525.978C381.715 525.448 380.678 521.604 377.985 522.25C377.997 523.229 378.083 523.611 378.402 524.5L377.738 524.75C376.711 524.1 375.842 523.541 374.982 522.669L387.658 475.525C393.909 455.555 396.008 434.203 396.98 413.356Z"/>
	<path fill="#780605" d="M701.643 670.387C701.953 665.325 705.052 659.778 706.712 654.917L715.913 657.176L713.325 675.75C712.807 681.459 713.148 687.535 711.564 693.086C712.2 697.697 712.583 704.478 711.792 709.011L711.491 712.838C711.529 720.188 710.815 727.149 710.46 734.438L709.99 752.771C709.944 754.472 709.083 756.204 709.111 757.75C709.134 758.997 709.955 760.253 710.037 761.578C710.326 766.216 709.75 771.041 709.579 775.69C709.471 778.608 709.828 781.697 709.331 784.566C709.161 785.543 709.198 786.05 709.425 787C708.219 789.711 706.27 791.562 704.167 793.603C701.702 791.996 699.247 790.44 696.564 789.219C693.795 787.958 691 787.183 688.49 785.4C684.482 785.741 680.45 787.025 676.567 788.055C677.55 770.863 680.68 753.203 684.113 736.345C688.685 713.892 694.125 692.035 701.643 670.387Z"/>
	<path fill="#FE6C61" d="M701.643 670.387C703.255 673.766 700.953 678.917 701.061 682.75L700.77 683.111C699.991 684.42 700.533 685.919 699.611 687.5L700.284 689.295L699.301 690.75L699.75 691.857L700.876 692.25L700.925 692.831L699.229 692.75L698.56 693.5L698.649 694.068L698.75 694.772L698.858 695.277C698.999 696.849 697.279 698.88 697.909 700.75C698.242 701.736 698.721 701.55 698.805 702.803C697.266 703.96 697.389 704.277 697.102 706.182C696.972 707.044 697.008 707.607 697.25 708.44L699.63 709.734L698.753 709.883C697.863 710.009 697.55 710.047 696.75 709.755C696.611 710.42 696.256 711.075 696.332 711.75C696.454 712.823 697.734 712.22 696.677 713.497C694.779 715.79 694.295 722.482 694.25 725.515L694.998 726.75C694.374 728.348 693.25 729.258 693.25 731.011L694.386 732.75L693.864 733.206C693.316 733.704 692.936 734.154 692.51 734.75L692.523 735.401C692.541 737.415 692.293 738.904 691.76 740.832C691.562 741.546 691.549 741.876 691.75 742.583C692.869 742.646 692.285 742.663 693.5 742.502L693.664 743.1L692.89 743.466C691.999 743.926 691.666 744.232 691.072 745L691.123 746.432L693.563 748C693.101 748.969 693.311 748.94 692.25 749.423L691 749.093C690.316 749.918 690.451 749.458 690.477 750.364C690.53 752.26 690.402 753.898 690.008 755.75L690.983 757.817L690.683 758.279C689.369 760.149 689.604 762.918 689.442 765.133C688.951 771.875 689.214 778.702 688.49 785.4C684.482 785.741 680.45 787.025 676.567 788.055C677.55 770.863 680.68 753.203 684.113 736.345C688.685 713.892 694.125 692.035 701.643 670.387Z"/>
	<path fill="#780605" d="M310.744 743.275L305.672 657.317C308.477 655.892 312.033 655.159 315.032 654.012L320.299 671.755C324.283 681.677 326.616 691.701 329.272 702.023L339.286 744.956L345.756 787.849L344.909 787.592C341.183 786.49 337.554 786.215 333.693 785.976C328.141 788.629 323.479 789.414 318.571 793.574C316.254 792.186 314.331 790.391 312.321 788.605L310.744 743.275Z"/>
	<path fill="#BF1917" d="M319.111 686.693L318.742 686.557C317.38 685.694 317.182 685.495 316.909 684C317.934 682.837 318.131 682.712 319.608 682.24C320.892 683.326 321.063 683.392 321.481 685C320.684 686.102 320.387 686.162 319.111 686.693Z"/>
	<path fill="#FE6C61" d="M320.299 671.755C324.283 681.677 326.616 691.701 329.272 702.023L339.286 744.956L345.756 787.849L344.909 787.592C341.183 786.49 337.554 786.215 333.693 785.976C333.431 784.921 333.208 783.912 333.283 782.818C333.515 779.435 332.927 776.357 332.668 773C332.447 770.13 332.982 768.216 331.358 765.75C331.785 763.268 331.787 762.64 330.658 760.5L331.411 759.25L330.553 751.176C330.49 747.912 330.361 741.914 329.253 738.949C328.961 738.165 328.082 738.067 327.36 737.75C327.822 736.925 327.569 737.151 328.303 736.65L328.807 736.333L328.537 732.5C328.216 729.766 328.155 727.986 325.921 726.25L326.862 724.483C327.241 723.338 326.382 722.216 325.84 721.254L325.551 720.75C326.227 719.388 325.943 717.275 325.922 715.75L324.467 714.5L325.303 712L324.434 710.75C324.919 707.898 324.65 703.726 322.843 701.335L322.529 701L323.442 699.75C322.596 697.961 323.097 696.259 322.349 694.75L321.54 694.75L321.011 694L322.25 692.375L321.995 691.587L319.793 691.25C320.889 690.249 321.206 690.19 321.437 688.75L319.111 686.693C320.387 686.162 320.684 686.102 321.481 685C321.063 683.392 320.892 683.326 319.608 682.24C320.456 681.34 320.721 681.198 320.924 680L319.381 678.25L320.007 676.5C319.194 675.141 318.347 675.738 317.118 674.75L320.299 671.755Z"/>
	<path fill="#DE3933" d="M372.434 336.464L397.976 336.325L396.98 413.356C396.008 434.203 393.909 455.555 387.658 475.525C387.528 472.849 387.468 469.968 386.792 467.364C385.811 463.584 383.781 460.634 380.355 458.665C377.569 457.064 374.449 456.406 371.287 457.32L370.75 457.489C368.367 458.216 366.427 459.346 364.31 460.617L368.527 437.944C371.051 421.262 371.982 404.644 372.002 387.786L372.434 336.464Z"/>
	<path fill="#780605" d="M748.207 454.264C750.557 455.442 752.298 457.16 754.25 458.885L754.591 460.25L752.581 462.25L752.904 462.558C754.391 464.094 755.235 466.004 757.041 467.25L757.433 468.555C758.199 468.877 758.907 469.089 759.719 469.266L760.201 470.25C759.513 471.726 759.097 472.843 757.659 473.75C757.854 476.2 761.589 479.738 763.283 481.667C764.714 480.417 766.15 478.96 767.814 478.031C767.575 477.203 767.262 476.706 766.808 475.984C768.185 473.76 767.663 471.864 767.456 469.393C767.303 467.706 766.698 465.518 767.286 463.945C767.663 462.937 767.634 463.51 767.535 462.258L767.368 460.311L767.34 459.621C768.769 460.39 769.959 461.747 771.129 462.871L771.926 462.75C772.032 461.67 772.015 460.982 772.75 460.141L775.25 460.859L776.75 459.615C778.004 459.8 778.479 460.205 779.355 461.05L783.234 464.389L783.6 464.294L784.389 455.73L783.918 507.608L783.915 538.836C784.048 541.39 784.49 544.223 784.372 546.75C784.318 547.909 784.012 549.091 784.05 550.25C784.14 553.038 785.085 553.784 783.634 556.618C778.914 560.76 771.707 561.306 766.171 563.696C762.978 565.074 751.598 571.742 748.709 571.598L748.053 571.538C748.423 569.769 749.038 568.29 749.781 566.647L747.948 564.018L747.799 561.131C746.455 553.82 747.531 545.102 747.6 537.615L747.704 493.061L747.726 476.523C747.727 474.706 747.347 471.963 747.722 470.25C747.812 469.837 748.625 468.899 748.892 468.5L747.905 467C747.855 465.878 747.799 465.053 748.239 464L748.569 463.25C747.576 461.182 747.899 458.262 747.872 455.988L748.207 454.264Z"/>
	<path fill="#BF1917" d="M748.207 454.264C750.557 455.442 752.298 457.16 754.25 458.885L754.591 460.25L752.581 462.25L752.904 462.558C754.391 464.094 755.235 466.004 757.041 467.25L757.433 468.555C758.199 468.877 758.907 469.089 759.719 469.266L760.201 470.25C759.513 471.726 759.097 472.843 757.659 473.75C757.854 476.2 761.589 479.738 763.283 481.667C764.714 480.417 766.15 478.96 767.814 478.031L767.278 485.75L768.093 486.045C769.198 486.452 768.761 486.266 769.738 486.75L767.641 488.25C767.467 492.057 766.432 497.353 767.772 500.848C767.07 502.348 766.194 503.43 766.75 505.143C766.886 505.563 767.263 506.118 767.504 506.5C766.869 507.886 766.152 508.821 766.64 510.411C766.809 510.961 767.571 511.828 767.887 512.25C767.026 513.951 766.014 514.676 766.25 516.658L768.383 517.25C767.847 518.219 767.161 518.742 766.344 519.465C766.548 520.161 766.846 520.453 767.304 521L767.01 521.531L766.291 523C767.234 523.846 767.626 524.061 768 525.25C766.822 526.697 766.586 526.805 766.472 528.75L767.913 530.5C767.556 533.527 765.135 533.329 767.452 536.382L767.943 537L766.022 539.5C766.413 540.497 766.784 541.174 767.467 542C767.195 543.235 766.849 543.555 766.055 544.5L767.594 547.25L766.694 548.023L766.797 549.027C766.917 550.117 767.177 550.979 767.56 552C766.018 552.668 766.378 550.922 765.079 552.5L764.75 554.536L764.276 554.692L758.24 557.293L756.757 558.031C755.538 558.693 756.48 558.253 755.395 558.574C754.315 558.893 753.796 559.753 752.898 560.361C751.028 561.628 749.384 562.095 747.948 564.018L747.799 561.131C746.455 553.82 747.531 545.102 747.6 537.615L747.704 493.061L747.726 476.523C747.727 474.706 747.347 471.963 747.722 470.25C747.812 469.837 748.625 468.899 748.892 468.5L747.905 467C747.855 465.878 747.799 465.053 748.239 464L748.569 463.25C747.576 461.182 747.899 458.262 747.872 455.988L748.207 454.264Z"/>
	<path fill="#FE6C61" d="M607.274 413.578L624.629 412.999L629.475 457.5C630.293 461.676 630.663 467.01 632.889 470.663L644.89 517.101L650.604 531.293L663.687 558.068C662.587 558.966 661.474 559.831 660.5 560.868C658.535 560.616 658.699 558.949 656.575 559.25L652.091 563.75C652.34 564.667 653.998 566.571 653.615 567.159C652.85 568.336 651.266 569.255 650.135 570.085C642.52 561.851 635.207 552.512 628.765 543.327C625.968 539.34 622.946 535.377 620.751 531.023L609.549 512.802L604.796 504.492C594.445 485.74 587.134 465.973 579.174 446.14L595.86 446.061C596.486 450.978 599.087 456.596 600.689 461.324C602.8 467.556 604.476 474.407 607.287 480.335C608.32 482.515 609.649 484.246 611.249 486.033C613.375 486.051 616.167 486.378 618.21 485.858C619.977 485.408 621.601 484.249 622.606 482.75C624.042 480.609 623.43 476.905 622.804 474.541L621.809 470.646L618.05 458.5C615.328 450.075 613.175 441.177 611.36 432.506C610.304 427.462 608.822 422.323 608.234 417.203C608.08 415.864 607.757 414.822 607.274 413.578Z"/>
	<path fill="#BF1917" d="M620.751 531.023L623.35 529.433C622.776 527.762 620.866 525.735 619.275 524.97C618.385 524.542 618.131 524.283 617.556 523.5L619.319 520.565C618.668 520.094 618.062 519.658 617.337 519.303L616.838 519.077C617.014 517.523 617.904 517.104 618.967 516C618.149 514.469 616.363 513.721 615.194 512.387L615.882 512.253C620.956 514.865 625.484 519.373 630 522.874C631.033 522.281 631.05 522.385 631.359 521.25C630.177 520.206 629.233 519.686 628.75 518.163L631.75 516.536L632.25 517.285L631.093 518.5C631.265 520.076 631.261 519.949 632.5 520.957L635 519.171L639.036 522.5L638.997 522.997C636.941 522.946 636.461 520.452 634.445 520.905L633.903 521.75C635.292 524.033 638.78 526.472 640.75 528.503L642.25 527.987L642.551 528.5L642.138 529.5L642.726 529.933L643.5 530.52L644.252 531.06C645.135 531.789 645.426 532.48 645.956 533.445C646.306 534.082 646.702 534.488 647.25 534.955C648.343 534.308 648.431 533.615 648.952 532.5C648.25 531.536 647.642 530.928 646.695 530.203C644.597 528.595 642.781 526.625 640.923 524.75L641.5 524.438C642.566 525.278 643.018 526.064 644.42 525.917L644.649 525.383C645.034 524.531 644.883 524.842 645.5 523.961L647.085 524.25C646.484 525.296 645.718 525.943 644.839 526.75C645.095 527.406 645.027 527.68 645.67 528.017C647.191 528.815 648.133 529.654 649.25 530.945L650.604 531.293L663.687 558.068C662.587 558.966 661.474 559.831 660.5 560.868C658.535 560.616 658.699 558.949 656.575 559.25L652.091 563.75C652.34 564.667 653.998 566.571 653.615 567.159C652.85 568.336 651.266 569.255 650.135 570.085C642.52 561.851 635.207 552.512 628.765 543.327C625.968 539.34 622.946 535.377 620.751 531.023Z"/>
	<path fill="#DE3933" d="M641.158 535.061L641.859 535.643C643.206 536.923 643.882 537.672 643.943 539.5L643.25 539.942C642.356 539.174 641.557 538.664 640.5 538.144L640.339 538.531L642.285 540.736C642.507 541.711 642.543 541.196 641.953 542.25L640.75 542.471L637.276 538.987C638.349 537.53 639.848 536.309 641.158 535.061Z"/>
	<path fill="#DE3933" d="M253.871 336.979L274.496 336.482L274.599 366.713L274.478 445.495L274.531 455.624L274.643 478.897L273.987 556.289L273.56 556.638C271.818 556.045 270.805 555.613 269.68 554.109L269.425 553.75C267.969 553.932 267.373 554.845 266.305 555.803L265.445 555.545L265.171 554.75L266.75 553.347L265.949 552.25C263.158 551.582 264.274 553.054 262.088 553.354L258.93 550.75C257.764 550.103 256.785 550.962 255.75 551.475L255.037 551C255.581 550.123 256.144 549.332 256.309 548.291C256.452 547.389 255.011 546.185 254.42 545.491L255.896 543.5L255.033 542.25C254.869 540.592 254.969 540.63 255.937 539.25L255.062 537.525L254.704 536.924C255.159 536.269 255.584 535.729 255.79 534.943C255.98 534.22 255.407 533.629 255.071 533C255.714 531.078 255.271 529.001 255.593 527.016C255.792 525.787 255.893 525.196 255.51 523.97C255.321 523.366 255.098 522.972 255.193 522.323L255.492 520.5L254.298 519.75L255.618 516.5L254.792 515.132C254.974 514.085 254.817 514.436 255.312 513.57L255.659 513L255.104 511.917C255.064 511.01 255.178 510.435 255.521 509.608C256.029 508.384 255.77 508.435 255.332 507.25C255.571 506.488 255.909 505.552 255.895 504.75C255.877 503.696 255.155 502.81 255.383 501.731C255.79 499.807 255.206 498.933 255.319 497.09C255.725 490.476 255.254 484.029 255.079 477.438C255.002 474.517 255.518 470.859 254.877 468.067C254.432 466.132 254.841 463.797 254.991 461.819C254.968 459.097 254.62 456.018 255.449 453.408L256.133 453.67C257.57 453.889 256.9 452.413 257.778 451.57C259.445 449.969 261.196 448.522 262.993 447.073C260.572 443.993 258.839 442.772 255.004 442.048L254.965 440.587L253.871 336.979Z"/>
	<path fill="#BF1917" d="M274.643 478.897L273.02 478.453C270.316 477.426 269.11 475.017 268.138 472.467L267.896 471.81C266.542 470.816 264.873 469.206 263.26 468.801L260.894 471.147C259.821 471.964 259.026 472.048 257.75 471.868L257.343 469.93L257.171 469.25C258.232 468.381 259.179 467.457 260.529 467.093C261.447 466.845 261.702 466.648 262.398 466C262.688 464.923 262.831 464.198 263.54 463.313C264.311 462.352 263.933 462.966 264.44 462.124C264.993 461.207 265.278 460.526 266.25 459.973L269 462.464C270.252 461.833 270.761 461.433 271.52 460.25C270.914 456.805 266.182 455.299 264.858 452.25C265.61 451.023 265.879 450.022 267.25 449.47C269.61 451.822 271.656 453.872 274.531 455.624L274.643 478.897Z"/>
	<path fill="#DE3933" d="M575.97 336.558L600.985 336.458L623.406 336.652L624.629 412.999L607.274 413.578C607.757 414.822 608.08 415.864 608.234 417.203C608.822 422.323 610.304 427.462 611.36 432.506C613.175 441.177 615.328 450.075 618.05 458.5L621.809 470.646L622.804 474.541C623.43 476.905 624.042 480.609 622.606 482.75C621.601 484.249 619.977 485.408 618.21 485.858C616.167 486.378 613.375 486.051 611.249 486.033C609.649 484.246 608.32 482.515 607.287 480.335C604.476 474.407 602.8 467.556 600.689 461.324C599.087 456.596 596.486 450.978 595.86 446.061L586.714 412.82C583.446 399.633 581.336 385.957 579.564 372.5L577.642 353.45C577.301 348.718 577.968 340.745 575.97 336.558Z"/>
	<path fill="#FED0C5" d="M600.985 336.458L623.406 336.652L624.629 412.999L607.274 413.578C606.658 410.607 606.685 407.384 606.43 404.349L604.924 385.655L600.985 336.458Z"/>
	<path fill="#780605" d="M749.074 655.649C756.638 653.66 764.351 650.72 771.538 647.614C774.526 646.322 781.009 642.091 783.937 642.14L784.358 643.174L784.408 648.067C784.268 651.015 784.535 654.024 784.45 656.993L784.532 723.816L784.053 746.69C784.07 749.949 783.818 753.521 784.4 756.722C784.835 759.109 783.415 761.879 783.532 764.5C783.937 773.537 781.053 779.922 774.946 786.478C771.475 790.203 765.364 793.704 760.131 793.626C755.821 793.561 750.467 790.286 746.99 787.873C747.036 785.909 747.094 784.082 747.586 782.169L747.7 781.75C746.832 779.728 747.569 778.063 747.559 776C747.541 772.101 747.055 768.31 747.212 764.377C747.277 762.733 747.967 760.348 747.414 758.844L747.118 758.25C747.379 757.487 748.22 755.481 748.093 754.75C748.011 754.277 747.478 753.97 747.379 753.5C747.184 752.583 748.167 751.159 748.228 750.25C748.28 749.462 747.396 748.297 747.434 747.5C747.46 746.954 748.448 746.034 748.455 745.5C748.466 744.681 747.753 743.096 747.506 742.25C747.851 741.127 748.263 740.077 748.003 738.893C747.628 737.188 746.973 735.852 747.807 734.161C747.906 732.434 748.154 730.529 747.838 728.822C747.61 727.594 747.375 726.56 747.688 725.316C748.151 723.477 748.242 723.472 749.895 722.463L749.928 722.278L748.121 720.75L748.029 704.148C748.021 701.57 747.551 697.529 748.445 695.189L748.4 694.762L748.333 694.049C747.987 690.62 748.061 687.354 748.218 683.915L749.192 675.793L749.074 655.649Z"/>
	<path fill="#BF1917" d="M749.074 655.649C756.638 653.66 764.351 650.72 771.538 647.614C774.526 646.322 781.009 642.091 783.937 642.14L784.358 643.174C779.074 645.712 774.617 648.226 769.865 651.75C770.349 652.564 770.842 653.106 771.535 653.75L771.147 654.661L770.25 654.958C769.523 653.995 769.354 653.335 768.128 653.07C768.003 654.119 768.143 654.556 768.604 655.5C768.249 656.329 767.848 657.008 767.337 657.75L767.699 658.272C768.239 659.083 768.047 658.761 768.445 659.75L766.162 664.5C767.13 665.084 767.546 665.121 768.64 665.25L769.001 666.25C767.538 667.467 764.871 668.799 762.965 669.094C759.813 669.581 757.373 673.086 755.273 675.259C756.247 676.58 757.906 678.144 757.75 679.764L756.642 679.842L756.232 678.921C755.711 677.803 755.05 677.142 754.208 676.272C753.381 675.418 752.699 674.451 752 673.493C750.654 673.483 750.623 673.374 749.627 674.25C749.847 675.384 749.608 675.397 750.592 676.098C751.921 677.045 752.888 678.473 753.879 679.75L752.75 680.018L749.192 675.793L749.074 655.649Z"/>
	<path fill="#780605" d="M237.414 648.395C236.986 646.065 237.459 643.226 237.591 640.851C241.828 642.32 245.664 645.851 249.793 646.823L250.769 647.035L257.46 650.065L272.027 655.111L271.99 671.682L273.512 710.25L272.435 711.25C272.887 712.207 272.554 711.768 273.518 712.5C273.626 714.325 273.771 716.057 273.471 717.868L273.619 718.599C274.229 723.15 273.991 727.846 274.113 732.433L274.899 758.531C275.006 761.612 274.439 765.867 275.468 768.75C274.982 769.768 274.84 770.751 275.15 771.878L275.475 772.75L274.461 774.5C275.361 776.676 274.126 778.301 274.69 780.507C275.191 782.465 274.935 784.443 275.241 786.423C272.748 789.312 267.757 792.327 264.06 793.511C260.487 794.655 255.917 792.423 252.741 790.867L252 790.495C250.38 789.695 249.138 788.795 247.836 787.551C244.161 784.036 239.675 779.39 238.25 774.393C237.358 771.263 237.584 767.726 237.489 764.5L237.14 747.247L237.055 669.704L237.167 652.509L237.414 648.395Z"/>
	<path fill="#BF1917" d="M250.769 647.035L257.46 650.065L272.027 655.111L271.99 671.682C270.91 671.319 269.991 670.678 268.936 671.44L267.595 672.75C266.764 672.091 266.313 671.486 265.75 670.591C264.443 670.966 263.928 671.801 262.999 672.757C261.712 670.748 260.339 670.388 258.25 669.52C257.458 669.768 256.834 669.921 256 670.027L255.25 669.255L256.25 667.941C256.75 666.686 254.896 664.545 254.156 663.5C254.609 662.589 255.009 661.712 255.342 660.75L253.112 658.391L251.174 655.638L253.953 652.605C252.366 652.197 251.703 652.177 250.522 651L250.769 647.035Z"/>
	<path fill="#DE3933" d="M421.017 336.477L451.08 336.618L468.808 336.465L453.099 413.819L442.869 446.063L426.94 445.512L419.061 468.659C417.308 473.654 415.896 480.676 412.174 484.567C410.66 486.15 407.415 487.312 405.25 487.032C403.359 486.787 401.789 485.586 400.636 484.135L400.299 483.699L399.659 482.866C398.033 480.453 398.623 477.739 399.089 475.068C400.227 468.543 403.159 462.28 404.933 455.903C408.81 441.964 412.008 427.674 414.324 413.395L396.98 413.356L397.976 336.325L421.017 336.477Z"/>
	<path fill="#FEBAAD" d="M426.94 445.512L435.237 412.101C436.858 413.353 438.811 412.872 440.832 412.871C444.676 412.869 448.326 412.614 452.042 413.615L453.099 413.819L442.869 446.063L426.94 445.512Z"/>
	<path fill="#FED0C5" d="M397.976 336.325L421.017 336.477L414.324 413.395L396.98 413.356L397.976 336.325Z"/>
	<path fill="#FED0C5" d="M451.08 336.618L468.808 336.465L453.099 413.819L452.042 413.615C448.326 412.614 444.676 412.869 440.832 412.871C438.811 412.872 436.858 413.353 435.237 412.101L444.934 336.975L451.08 336.618Z"/>
	<path fill="#FE6C61" d="M324.7 336.537L372.434 336.464L372.002 387.786C371.982 404.644 371.051 421.262 368.527 437.944L364.31 460.617C359.744 466.877 358.921 474.261 356.744 481.525L349.325 504.137L341.62 522.512L340.221 519.939C340.961 519.096 341.696 518.437 342.583 517.75C342.014 516.17 339.94 515.023 338.568 514.184L337.159 515.312C335.749 514.171 335.334 513.606 333.5 513.38L332 514.492C330.639 514.164 329.866 512.216 328.97 512.75L329.889 514.5C329.465 515.781 329.136 515.815 328 516.587L325.5 514.515L325.25 514.997L326.663 517.25C326.113 518.34 325.836 518.386 324.75 518.99C323.752 518.541 323.444 518.337 322.994 517.25C322.856 516.916 322.806 516.485 322.75 516.126L322.077 516.5C322.16 517.635 322.397 518.255 322.944 519.25C322.22 520.076 321.675 520.348 320.66 520.75L320.526 523.5C319.774 523.976 319.141 524.29 318.292 524.555L323.889 486.205C324.492 480.77 325.514 474.951 324.92 469.488C324.706 467.531 323.848 465.682 323.05 463.905C325.491 451.378 324.446 437.491 324.436 424.732L324.122 361.494L323.906 345.451C323.894 342.969 323.592 340.187 324.28 337.788L324.7 336.537Z"/>
	<path fill="#FED0C5" d="M324.7 336.537L372.434 336.464L372.002 387.786L351.634 387.564C348.793 387.533 345.313 387.851 342.568 387.19C330.543 384.293 339.118 363.37 333.312 355.442C331.134 352.468 327.735 352.264 324.379 351.806L324.28 337.788L324.7 336.537Z"/>
	<path fill="#FEBAAD" d="M287.762 336.523L298.963 336.487L324.7 336.537L324.28 337.788C323.592 340.187 323.894 342.969 323.906 345.451L324.122 361.494L324.436 424.732C324.446 437.491 325.491 451.378 323.05 463.905C320.167 460.703 317.216 457.432 312.601 457.113C308.915 456.858 304.515 458.222 301.857 460.777L298.552 464.284C296.188 473.425 295.327 482.64 293.525 491.874L280.123 547.19C278.227 554.211 276.839 561.862 274.303 568.643C273.989 567.689 273.86 567.085 273.921 566.068L273.987 556.289L274.643 478.897L274.531 455.624L274.478 445.495L274.599 366.713L274.496 336.482L287.762 336.523Z"/>
	<path fill="#FED0C5" d="M274.496 336.482L287.762 336.523L287.321 386.877C284.772 384.654 282.182 382.038 278.5 382.504L276.75 382.872L275.25 383.02C275.153 378.234 275.942 371.159 274.599 366.713L274.496 336.482Z"/>
	<path fill="#DE3933" d="M298.963 336.487L324.7 336.537L324.28 337.788C323.592 340.187 323.894 342.969 323.906 345.451L324.122 361.494L324.436 424.732C324.446 437.491 325.491 451.378 323.05 463.905C320.167 460.703 317.216 457.432 312.601 457.113C308.915 456.858 304.515 458.222 301.857 460.777L298.552 464.284L298.963 336.487Z"/>
	<path fill="#FEBAAD" d="M697.97 336.349L714.55 336.185C717.467 336.188 720.596 335.954 723.472 336.328C726.437 336.362 730.107 336.771 732.966 336.134L734.245 336.451C738.434 336.459 742.942 336.124 747.086 336.647L747.447 431.365L747.653 447.147C747.665 450.039 747.428 453.145 747.872 455.988C747.899 458.262 747.576 461.182 748.569 463.25L748.239 464C747.799 465.053 747.855 465.878 747.905 467L748.892 468.5C748.625 468.899 747.812 469.837 747.722 470.25C747.347 471.963 747.727 474.706 747.726 476.523L747.704 493.061L747.6 537.615C747.531 545.102 746.455 553.82 747.799 561.131L747.948 564.018L749.781 566.647C749.038 568.29 748.423 569.769 748.053 571.538L733.37 518.043L729.544 499.277L727.293 484.933C726.367 477.818 725.873 470.811 723.609 463.948C720.191 460.532 716.073 457.336 711 457.166C706 456.999 702.057 460.276 698.731 463.544L698.458 460.717L698.164 458.75C697.332 453.475 697.511 448.161 697.52 442.836L697.636 421.328L697.991 352.583L697.97 336.349Z"/>
	<path fill="#FED0C5" d="M734.245 336.451C738.434 336.459 742.942 336.124 747.086 336.647L747.447 431.365C746.634 430.246 747.08 427.283 747.033 425.828C746.962 423.636 746.503 421.356 746.5 419C745.84 418.766 746.108 418.894 745.467 418.522L745.004 418.247C743.848 419.077 743.786 420.196 742.784 420.947C741.713 421.75 742.129 422.632 740.648 423.524C740.474 424.324 740.341 424.822 739.888 425.521L739.501 426.098C738.866 427.507 738.48 428.883 737.692 430.258L736.778 431.87L736.446 432.517C734.478 436.226 735.2 440.982 735.23 445.081C735.241 446.691 735.561 448.496 734.747 449.943L734.495 403.679L734.245 336.451Z"/>
	<path fill="#FEBAAD" d="M732.966 336.134L734.245 336.451L734.495 403.679C733.972 406.135 734.227 408.91 734.226 411.415L734.218 425.613L734.251 490.344L734.297 508.245C734.297 510.677 734.684 513.886 734.245 516.25C734.104 517.011 733.795 517.415 733.37 518.043L729.544 499.277L727.293 484.933C726.367 477.818 725.873 470.811 723.609 463.948L723.472 336.328C726.437 336.362 730.107 336.771 732.966 336.134Z"/>
	<path fill="#FE6C61" d="M732.966 336.134L734.245 336.451L734.495 403.679C733.972 406.135 734.227 408.91 734.226 411.415L734.218 425.613L734.251 490.344L734.297 508.245C734.297 510.677 734.684 513.886 734.245 516.25C734.104 517.011 733.795 517.415 733.37 518.043L729.544 499.277C730.287 500.166 730.594 500.996 730.972 502.068L731.123 502.503L731.75 502.755L731.755 501.75C732.696 495.152 732.41 488.24 732.458 481.502L732.416 446.136L732.966 336.134Z"/>
	<path fill="#DE3933" d="M697.97 336.349L714.55 336.185C717.467 336.188 720.596 335.954 723.472 336.328L723.609 463.948C720.191 460.532 716.073 457.336 711 457.166C706 456.999 702.057 460.276 698.731 463.544L698.458 460.717L698.164 458.75C697.332 453.475 697.511 448.161 697.52 442.836L697.636 421.328L697.991 352.583L697.97 336.349Z"/>
	<path fill="#FE6C61" d="M649.577 336.437L697.97 336.349L697.991 352.583L697.636 421.328L697.52 442.836C697.511 448.161 697.332 453.475 698.164 458.75L698.458 460.717L698.731 463.544C694.746 471.391 697.166 480.721 697.938 489.069C698.68 497.092 699.027 505.596 701.591 513.294L701.863 514.06L701.095 514.307C698.256 515.329 695.814 520.553 693.014 520.25L692.502 519.5C693.38 518.325 694.321 517.601 695.488 516.75C695.429 516.068 695.534 515.74 695.088 515.201C694.336 514.292 693.83 513.757 693.75 512.524L693.199 512.25L692.453 513.25C692.923 514.188 693.271 514.542 694.015 515.25L693.5 515.957C691.228 515.488 687.505 510.723 685.863 508.916C685.152 508.134 684.483 507.026 683.466 506.75C685.416 509.417 687.234 512.197 689.86 514.25C689.44 515.162 689.305 515.321 688.5 515.922C686.204 514.149 683.706 511.492 681.75 509.331L681.268 509.75C682.979 511.704 686.785 515.09 687.25 517.561L686.25 517.996C682.703 514.646 678.693 510.931 675.75 507.042L675.481 507.5C677.128 511.482 681.643 515.79 684.959 518.5L685.065 519.75L683.965 520.198C681.809 518.099 679.551 515.621 677.059 513.933C672.408 504.349 668.867 494.497 665.691 484.334C663.099 476.036 661.657 468.254 657.192 460.667C652.734 457.678 648.752 456.193 643.242 457.393C639.791 458.144 637.368 459.89 635.585 462.938C634.229 465.255 633.586 468.082 632.889 470.663C630.663 467.01 630.293 461.676 629.475 457.5L624.629 412.999L623.406 336.652L649.577 336.437Z"/>
	<path fill="#FED0C5" d="M649.577 336.437L697.97 336.349L697.991 352.583C694.324 352.429 691.281 352.033 688.43 354.9C681.277 362.09 689.83 376.217 682.548 384.334C680.481 386.638 677.795 387.769 674.726 387.945L650.021 387.725L649.577 336.437Z"/>
	<path fill="#DE3933" d="M623.406 336.652L649.577 336.437L650.021 387.725C650.272 400.161 649.985 412.909 651.583 425.25C653.107 437.018 656.553 448.876 657.192 460.667C652.734 457.678 648.752 456.193 643.242 457.393C639.791 458.144 637.368 459.89 635.585 462.938C634.229 465.255 633.586 468.082 632.889 470.663C630.663 467.01 630.293 461.676 629.475 457.5L624.629 412.999L623.406 336.652Z"/>
	<path fill="#011621" d="M400.296 256.608C403.253 256.433 405.781 256.489 408.625 257.454C412.284 258.694 415.299 261.583 416.833 265.121C418.499 268.961 418.567 273.064 416.831 276.891C414.706 281.577 411.056 283.682 406.434 285.368C402.878 285.821 399.487 285.615 396.25 283.917C392.913 282.167 390.218 278.971 389.1 275.363C387.914 271.536 388.339 266.62 390.379 263.136C392.64 259.273 396.23 257.783 400.296 256.608Z"/>
	<path fill="#011621" d="M347.255 256.56C349.898 256.358 352.981 256.205 355.5 257.114C359.046 258.393 362.202 261.375 363.739 264.81C365.339 268.384 365.734 272.116 364.27 275.79C362.165 281.069 358.175 283.208 353.253 285.367C349.746 285.845 346.583 285.836 343.378 284.217C340.018 282.521 337.17 279.283 336.006 275.698C334.845 272.12 335.217 267.561 337.025 264.25C339.345 259.999 342.771 257.999 347.255 256.56Z"/>
	<path fill="#011621" d="M295.599 256.135C298.394 255.86 301.592 256.577 304 258.045C307.559 260.213 310.657 264.025 311.54 268.161L311.655 268.75C312.389 272.217 311.654 275.719 309.844 278.75C307.385 282.867 303.355 284.485 298.951 285.679C295.167 285.624 291.845 285.675 288.463 283.692C285.145 281.746 282.767 278.162 281.844 274.468C280.873 270.585 281.804 266.187 283.977 262.862C286.779 258.574 290.882 257.184 295.599 256.135Z"/>
	<path fill="#011621" d="M604.239 256.629C609.223 256.02 614.465 256.516 619.494 256.518L649.765 256.491L699.837 256.387L726.854 256.399C729.705 256.528 732.595 256.826 735.166 258.164C738.873 260.094 741.735 263.813 742.792 267.845C743.782 271.618 742.984 275.46 740.958 278.75C738.495 282.752 734.544 284.502 730.121 285.448L700.853 285.594L661.522 285.543L624.903 285.528C618.467 285.533 611.797 285.884 605.381 285.46C603.473 285.334 601.468 284.749 599.75 283.922C596.539 282.377 593.615 279.18 592.492 275.778C591.129 271.654 591.567 267.542 593.621 263.75C595.791 259.747 600.035 257.711 604.239 256.629Z"/>
	<path fill="#011621" d="M507.902 409.565C510.298 409.46 512.677 409.354 515 410.083C519.066 411.36 522.374 414.003 524.254 417.849C525.876 421.167 526.103 425.279 524.792 428.735C522.835 433.896 518.549 436.313 513.762 438.406C509.948 438.574 506.085 438.583 502.789 436.324C499.427 434.021 497.192 430.785 496.448 426.775L496.315 426C495.693 422.588 496.263 419.37 497.978 416.341C500.337 412.174 503.537 410.792 507.902 409.565Z"/>
	<path fill="#011621" d="M489.142 466.631L520.987 466.392C525.387 466.455 531.394 465.961 535.5 467.579C538.797 468.878 541.321 471.804 542.694 475.005C544.269 478.677 544.7 482.809 543.036 486.542C541.086 490.916 537.664 492.545 533.483 494.218L508.701 494.29C501.975 494.329 492.712 495.756 486.397 493.335C483.319 492.155 480.907 489.705 479.654 486.664C477.951 482.531 477.998 477.606 479.934 473.562C481.848 469.566 485.28 468.124 489.142 466.631Z"/>
	<path fill="#011621" d="M464.076 526.598L519.12 526.388L544.523 526.376C548.996 526.378 554.948 525.695 559.203 527.045C563.003 528.251 566.12 531.404 567.706 534.999C569.18 538.339 568.74 542.927 567.356 546.204C565.542 550.501 562.083 552.667 557.994 554.423C540.926 555.394 523.543 554.574 506.438 554.567L478.2 554.535C473.956 554.524 467.163 555.367 463.25 553.847C459.668 552.455 456.46 549.343 455.025 545.75C453.526 541.997 453.722 537.679 455.29 533.974C457.012 529.905 460.219 528.169 464.076 526.598Z"/>
	<path fill="#011621" d="M579.75 585.767C586.627 585.524 595.948 584.411 601.639 588.996C604.724 591.481 606.636 595.823 606.791 599.75C606.939 603.508 605.662 606.973 603.038 609.695C600.727 612.091 597.1 613.888 593.811 614.4C589.963 614.999 585.351 614.433 581.43 614.43L551.187 614.426L442.775 614.435C438.104 614.491 431.87 615.317 427.388 614.205L426.75 614.031C424.396 613.404 422.311 612.709 420.428 611.095C417.632 608.699 415.776 604.882 415.504 601.227C415.228 597.519 416.01 593.827 418.631 591.032C421.575 587.893 425.271 586.56 429.448 586.056C434.072 585.498 438.937 586.061 443.604 586.031L474.781 585.798L579.75 585.767Z"/>
	<path fill="#011621" d="M606.051 705.258C612.328 704.929 621.004 704.118 625.981 708.706C628.985 711.476 630.93 715.733 631.083 719.819C631.23 723.729 629.422 727.83 626.607 730.534C625.063 732.017 622.657 733.449 620.503 733.678C613.508 734.42 605.882 733.85 598.815 733.849L555.527 733.839L416.237 733.848C412.081 733.963 407.747 734.289 403.624 733.687L402.75 733.545C399.905 733.105 397.793 732.388 395.593 730.446C392.647 727.845 390.979 724.525 390.764 720.578C390.546 716.591 391.479 712.877 394.333 709.953C396.476 707.757 400.013 705.961 403.084 705.641C409.362 704.987 416.259 705.49 422.591 705.49L462.41 705.481L606.051 705.258Z"/>
	<path fill="#011621" d="M452.325 645.749L564 645.688L600.742 645.487C606.787 645.503 613.259 645.135 619.25 645.915C622.385 646.323 624.899 647.695 627.148 649.913C629.872 652.599 631.372 656.444 631.337 660.25C631.304 663.833 629.482 667.674 626.915 670.146C625.117 671.876 622.695 673.266 620.248 673.801C615.626 674.811 609.467 674.078 604.676 674.081L570.75 674.083L458.659 674.228L423.919 674.269C418.31 674.286 412.613 674.654 407.016 674.38C404.238 674.244 401.667 673.939 399.13 672.727C395.385 670.938 392.758 667.921 391.464 663.969C390.255 660.277 390.66 655.69 392.572 652.292C394.195 649.406 397.076 647.244 400.303 646.519L401 646.375C406.699 645.134 413.54 645.82 419.413 645.807L452.325 645.749Z"/>
</svg>
